<svg width="256" height="256" viewBox="0 0 256 256" fill="none" xmlns="http://www.w3.org/2000/svg">
<g clip-path="url(#clip0_729_2)">
<path d="M192 0H64C28.6538 0 0 28.6538 0 64V192C0 227.346 28.6538 256 64 256H192C227.346 256 256 227.346 256 192V64C256 28.6538 227.346 0 192 0Z" fill="white"/>
<path d="M48 91.3333H94.6667C94.6667 87.6515 97.6515 84.6667 101.333 84.6667H161.333C187.107 84.6667 208 63.7733 208 38H161.333H94.6667C68.8933 38 48 58.8933 48 84.6667V91.3333Z" fill="#DB2777"/>
<path d="M48 98H94.6667C94.6667 101.682 97.6515 104.667 101.333 104.667H161.333C187.107 104.667 208 125.56 208 151.333V158H161.333C161.333 154.318 158.348 151.333 154.667 151.333H94.6667C68.8933 151.333 48 130.44 48 104.667V98Z" fill="#9333EA"/>
<path d="M208 164.667H161.333C161.333 168.349 158.349 171.333 154.667 171.333H94.6667C68.8933 171.333 48 192.227 48 218H94.6667H161.333C187.107 218 208 197.107 208 171.333V164.667Z" fill="#2563EB"/>
</g>
<defs>
<clipPath id="clip0_729_2">
<rect width="256" height="256" fill="white"/>
</clipPath>
</defs>
</svg>
